<!DOCTYPE svg PUBLIC "-//W3C//DTD SVG 1.1//EN" "http://www.w3.org/Graphics/SVG/1.1/DTD/svg11.dtd">
<!-- Uploaded to: SVG Repo, www.svgrepo.com, Transformed by: SVG Repo Mixer Tools -->
<svg fill="#000000" height="800px" width="800px" version="1.1" id="Layer_1" xmlns="http://www.w3.org/2000/svg" xmlns:xlink="http://www.w3.org/1999/xlink" viewBox="0 0 512 512" xml:space="preserve" stroke="#000000" stroke-width="6.144">
<g id="SVGRepo_bgCarrier" stroke-width="0"/>
<g id="SVGRepo_tracerCarrier" stroke-linecap="round" stroke-linejoin="round"/>
<g id="SVGRepo_iconCarrier"> <g> <g> <g> <path d="M194.021,436.547H204.8c16.345,0,29.642-13.298,29.642-29.642V29.642C234.442,13.298,221.145,0,204.8,0h-10.779 c-16.345,0-29.642,13.298-29.642,29.642v377.263C164.379,423.25,177.677,436.547,194.021,436.547z M180.547,29.642 c0-7.43,6.044-13.474,13.474-13.474H204.8c7.43,0,13.474,6.044,13.474,13.474v377.263c0,7.43-6.044,13.474-13.474,13.474h-10.779 c-7.43,0-13.474-6.044-13.474-13.474V29.642z"/> <path d="M406.905,436.547h10.779c16.345,0,29.642-13.298,29.642-29.642V83.537c0-16.344-13.297-29.642-29.642-29.642h-10.779 c-16.344,0-29.642,13.298-29.642,29.642v323.368C377.263,423.25,390.561,436.547,406.905,436.547z M393.431,83.537 c0-7.43,6.044-13.474,13.474-13.474h10.779c7.43,0,13.474,6.044,13.474,13.474v323.368c0,7.43-6.044,13.474-13.474,13.474 h-10.779c-7.43,0-13.474-6.044-13.474-13.474V83.537z"/> <path d="M509.632,476.642l-21.558-21.558c-3.156-3.156-8.275-3.156-11.432,0c-3.157,3.157-3.157,8.275,0,11.433l7.758,7.757H51.2 c-7.43,0-13.474-6.044-13.474-13.474V27.602l7.758,7.758c3.156,3.156,8.275,3.156,11.432,0c3.157-3.157,3.157-8.275,0-11.433 L35.358,2.368c-3.156-3.156-8.275-3.156-11.432,0L2.368,23.926c-3.157,3.157-3.157,8.275,0,11.433 c3.156,3.156,8.275,3.156,11.432,0l7.758-7.758V460.8c0,16.344,13.298,29.642,29.642,29.643h433.199l-7.758,7.757 c-3.157,3.157-3.157,8.275,0,11.433c1.578,1.578,3.648,2.367,5.716,2.367s4.138-0.789,5.716-2.367l21.558-21.558 C512.79,484.917,512.79,479.799,509.632,476.642z"/> <path d="M317.979,436.547h10.779c16.345,0,29.642-13.298,29.642-29.642V245.221c0-16.344-13.297-29.642-29.642-29.642h-10.779 c-16.345,0-29.642,13.298-29.642,29.642v161.684C288.337,423.25,301.635,436.547,317.979,436.547z M304.505,245.221 c0-7.43,6.044-13.474,13.474-13.474h10.779c7.43,0,13.474,6.044,13.474,13.474v161.684c0,7.43-6.044,13.474-13.474,13.474 h-10.779c-7.43,0-13.474-6.044-13.474-13.474V245.221z"/> <path d="M105.094,436.547h10.779c16.345,0,29.642-13.298,29.642-29.642V180.547c0-16.344-13.297-29.642-29.642-29.642h-10.779 c-16.344,0-29.642,13.298-29.642,29.642v226.358C75.452,423.25,88.75,436.547,105.094,436.547z M91.621,180.547 c0-7.43,6.044-13.474,13.474-13.474h10.779c7.43,0,13.474,6.044,13.474,13.474v226.358c0,7.43-6.044,13.474-13.474,13.474 h-10.779c-7.43,0-13.474-6.044-13.474-13.474V180.547z"/> </g> </g> </g> </g>
</svg>